PathFileType	4	(X/Y/Z)	Patient4_TMGait_0pt4_03_right_23.trc.trc
DataRate	CameraRate	NumFrames	NumMarkers	Units	OrigDataRate	OrigDataStartFrame	OrigNumFrames
72.164948453608	72.164948453608	5	33	mm	72.164948453608	36	       141
Frame#	Time	Sacral			L.Shoulder			Chest			R.Shoulder			Neck			R.ASIS			L.ASIS			R.Thigh.Superior			R.Thigh.Lateral			R.Thigh.Inferior			R.Patella			L.Thigh.Superior			L.Thigh.Lateral			L.Thigh.Inferior			L.Patella			L.Shank.Superior			L.Shank.Lateral			L.Shank.Inferior			R.Shank.Superior			R.Shank.Lateral			R.Shank.Inferior			R.Heel			R.Midfoot.Superior			R.Midfoot.Lateral			R.Toe			L.Heel			L.Midfoot.Lateral			L.Midfoot.Superior			L.Toe			L.Elbow			L.Wrist			R.Elbow			R.Wrist			
		X1	Y1	Z1	X2	Y2	Z2	X3	Y3	Z3	X4	Y4	Z4	X5	Y5	Z5	X6	Y6	Z6	X7	Y7	Z7	X8	Y8	Z8	X9	Y9	Z9	X10	Y10	Z10	X11	Y11	Z11	X12	Y12	Z12	X13	Y13	Z13	X14	Y14	Z14	X15	Y15	Z15	X16	Y16	Z16	X17	Y17	Z17	X18	Y18	Z18	X19	Y19	Z19	X20	Y20	Z20	X21	Y21	Z21	X22	Y22	Z22	X23	Y23	Z23	X24	Y24	Z24	X25	Y25	Z25	X26	Y26	Z26	X27	Y27	Z27	X28	Y28	Z28	X29	Y29	Z29	X30	Y30	Z30	X31	Y31	Z31	X32	Y32	Z32	X33	Y33	Z33	

36	29.925000000000	868.195338657020	1007.569306008179	472.494730671341	1062.769018545966	1433.204637629138	295.187754759718	1157.175934951271	1364.172049038204	460.549423276632	1066.565989384248	1437.506037750492	631.438735363068	1037.318484859239	1495.258904983162	455.831170114269	1094.784836345305	942.892079288015	597.202375004813	1085.426846653731	960.601926172148	322.915663892476	1145.626065343769	745.834503318929	565.429709022829	1071.021822470115	633.841779554524	626.651437685753	1151.081025189525	585.493749251136	545.870670261436	1156.531266623777	497.541130111421	553.411487374098	1112.660871337559	737.511912309489	341.786151845783	1013.989976789196	631.004196723894	273.981391299162	1096.923877052430	542.235538857278	326.971412487566	1089.453701666802	462.920489327185	323.038870295467	1032.400574702147	403.143819567885	319.338450316488	901.437324098608	331.847344237473	279.396818004917	917.393488594689	202.881718611731	334.168409630924	1129.668815041911	408.541585999083	563.356457238598	1061.283304590623	304.741344366974	627.941331536548	1105.024045099829	209.131752118821	566.822475360911	976.182815116578	43.092706155308	540.687792693108	1145.686931010227	97.654336773406	577.743037491204	1058.755381433521	37.699787944382	616.451997428670	1266.750107044579	45.819263555816	607.752548717914	751.779520599122	86.394734303464	383.621472417692	816.064191835501	60.874371466117	300.402455065748	912.593434276273	104.142057835592	316.552522515075	1021.721576280691	36.898573566030	283.874117810663	1031.177025137417	1090.020415447086	158.818298572671	1177.288867595618	869.682846192925	152.846347478696	1013.791053819815	1101.253172714966	766.580332020882	1170.343953982507	892.926055288438	777.350825612545	
37	29.938857142857	868.373081072561	1007.338373802435	477.173699456028	1060.773431015206	1433.830979738419	299.177701876293	1156.643166109248	1364.562493346454	463.639473507463	1067.316586868122	1437.330615188047	635.347792780953	1036.417420629405	1495.409528543079	459.801513303208	1095.930486065807	942.857288348556	599.829130334844	1084.580903864485	961.059853700733	325.815911342563	1145.659099103190	745.288720662394	568.236273040727	1070.220768656920	633.466899463777	628.957689324138	1150.068957832568	584.907160464328	548.141520913794	1154.974885329549	496.757143834019	555.160873820347	1116.279612504147	739.464646629404	344.037160963903	1021.227732486062	631.257257928284	275.064217678626	1106.636675286894	543.760408220799	327.466807992177	1099.900624055138	463.175401680039	322.257359919727	1040.796660316357	403.763516139282	318.794794025956	907.480085334306	336.651558154009	279.405095898964	919.884117692197	207.037448060800	333.099050149752	1127.421054259808	407.880464831533	564.632656193959	1058.400200621664	304.413349934363	628.864751363643	1101.075125607397	208.690378179112	567.233405474761	970.774098728466	43.216239459035	540.760169501234	1140.444707551844	97.530538049263	577.925538934618	1053.345808424477	37.704791732803	616.566520409692	1261.450300112605	45.208545809420	607.975690641616	750.617423817427	97.516958187222	382.776821639595	813.412535398615	67.994406585535	299.878388635003	911.786089759788	106.667129182703	315.320444767062	1016.590840907821	36.233016930758	283.885741445939	1025.159450161592	1091.292278641848	162.311270981311	1167.270674224465	868.360772957508	153.126200685879	1017.221581192730	1101.546735181966	772.114072020225	1181.420223688969	899.423450404425	779.935467472118	
38	29.952714285714	868.335579057414	1007.040483289884	481.816819616467	1058.530804321612	1434.276353929512	303.033719679394	1155.995691840717	1364.813719574644	466.535479407096	1068.115232656091	1437.072346836811	639.118110350888	1035.427192002379	1495.444164161330	463.604067078984	1096.843177323533	942.679441161893	602.299579930664	1083.550705838208	961.416173606418	328.580798211292	1145.467120336730	744.651948409065	570.943374881842	1069.331276929284	633.017026484299	631.249198045697	1148.882703909710	584.273304201672	550.303764703869	1153.298418332972	495.928764497499	556.890082994035	1120.202478841764	741.713554899766	346.169962277104	1029.040606778098	631.711930702886	276.066778711456	1116.915755608572	545.715791333619	327.992179081188	1111.007105018575	463.922686676784	321.713886922656	1050.002512487979	404.710676031784	318.366468604769	914.510239812113	341.864521348019	279.329196253523	923.217293976258	211.753363132372	332.098832091798	1125.052003454430	407.162502295981	565.884544160731	1055.371079315489	304.035597014486	629.762176766650	1096.998778568768	208.206044196403	567.626915146882	965.246414678036	43.322540483136	540.811618902431	1135.086946914236	97.361982082547	578.080410977690	1047.814922041819	37.687440507471	616.658404369657	1256.029621370618	44.553258105813	608.152087107262	750.394151525715	109.932886261652	381.908476175018	811.416491849269	76.322679852517	299.325060705695	911.566693478346	109.769005198643	314.205521696827	1011.474909099738	35.405068150388	283.933231532015	1019.108187783198	1092.354825885518	165.803595794471	1156.995203815511	866.850073806046	153.621778184514	1020.900755845086	1101.857721372291	777.684265846383	1192.640627978662	906.419783433280	782.281424526798	
39	29.966571428571	868.078262166878	1006.690724504957	486.359044659428	1056.067982004250	1434.555194003017	306.723923168998	1155.218515003204	1364.939794450577	469.224703708883	1068.909340012239	1436.753932398966	642.718457908120	1034.339614782473	1495.382910960557	467.200766291760	1097.514155116381	942.385134578382	604.632033166352	1082.337731637337	961.667004061226	331.207097016858	1145.100598167714	743.977562952282	573.471242050700	1068.447236968573	632.520537387695	633.486198629138	1147.605589623200	583.623170356594	552.304819121486	1151.569600765765	495.072465027791	558.555656243753	1124.295689545350	744.265603479266	348.193805722247	1037.199540383687	632.429202004250	277.027761657849	1127.493929801774	548.150481240821	328.585171951841	1122.544850792611	465.229410450709	321.464343992016	1059.812214255833	406.036440892653	318.110257275148	922.352616459879	347.457495625672	279.210708861749	927.302309218998	217.001984933721	331.237618141729	1122.626419137616	406.404637064386	567.089592362324	1052.265687783424	303.633503928578	630.634570464729	1092.847625640695	207.696211809695	568.001192691372	959.647795567375	43.419657008094	540.861554122206	1129.651502876115	97.177486754911	578.221825469747	1042.208863067033	37.660612566494	616.739820824161	1250.527428290992	43.899455832774	608.293440888778	751.136332382538	123.452521228063	381.067978771735	810.132722780702	85.786919978207	298.778582947188	911.914687685291	113.492451700370	313.267301506213	1006.426454710876	34.431407675884	284.012407870323	1013.024725566964	1093.191412298822	169.324827613339	1146.468681514351	865.147115497086	154.327344098958	1024.883035523482	1102.190876389825	783.236192366057	1203.966356554038	913.892227175502	784.345865175867	
40	29.980428571429	867.610113232907	1006.309826691487	490.750883044903	1053.419991734965	1434.694526627804	310.223359505313	1154.300429595591	1364.970499532990	471.704182962901	1069.641678039439	1436.409408408460	646.122491811743	1033.146889691909	1495.256335190445	470.562550926285	1097.958794746797	942.012729366116	606.854896239802	1080.950064886371	961.829731967520	333.702077001378	1144.607526813590	743.307601073155	575.775046066090	1067.609768045287	632.002002005682	635.629343025871	1146.292872029673	582.978000916527	554.120023006094	1149.828334432541	494.203489572181	560.120362235295	1128.401173285696	747.116307302801	350.138293421661	1045.458173033426	633.460201501926	277.981901459421	1138.100035737316	551.096390113549	329.274437209446	1134.278493173211	467.138398129244	321.524075874823	1070.002947820861	407.779719564178	318.057515146474	930.800962938411	353.380913689060	279.092087485300	932.030538610068	222.722336972133	330.572276461546	1120.181679765155	405.626152963838	568.228418890581	1049.126646578993	303.230181103677	631.476313094632	1088.658645468237	207.180145504804	568.355700473528	954.020503970119	43.515764156548	540.925148013123	1124.173231401764	97.001181223298	578.362007018868	1036.568780476783	37.635092740494	616.819110411195	1244.979357701074	43.285250471062	608.412518346898	752.837143165255	137.778908592650	380.317001060570	809.609316112546	96.211668791025	298.282682909799	912.816870049049	117.840153089136	312.547793932392	1001.553723871469	33.365050516186	284.111438124841	1006.918037155691	1093.802983478411	172.900662365210	1135.692047953314	863.259233873043	155.236706728845	1029.202853259682	1102.559689149749	788.704178035826	1215.353838747402	921.822991258944	786.084543132323	
